<svg xmlns="http://www.w3.org/2000/svg" width="34" height="34" viewBox="0 0 34 34">
  <g id="music_off" data-name="music off" transform="translate(-1176 -102)">
    <path id="Path_19607" data-name="Path 19607" d="M15.732,7.153,3.181,10.282a.848.848,0,0,1-1.025-.618h0a.85.85,0,0,1,.617-1.027l12.551-3.13a.848.848,0,0,1,.409,1.645ZM12.745,2.941,6.219,4.628v2.4l-1.813.46v-4.4a.825.825,0,0,1,.624-.8L13.93.063a.506.506,0,0,1,.628.491v4.36l-1.813.46ZM4.406,13.348v-2.5l1.813-.46v3.683a3.015,3.015,0,0,1-3.263,3.27c-2.7,0-2.538-2.18-2.538-2.18a2.057,2.057,0,0,1,1.45-1.816A3.108,3.108,0,0,1,4.406,13.348Zm5.8-1.817a3.111,3.111,0,0,1,2.538,0v-2.8l1.813-.46v3.982a3,3,0,0,1-3.263,3.27c-2.7,0-2.538-2.18-2.538-2.18A2.057,2.057,0,0,1,10.207,11.531Z" transform="translate(1184.584 110.602)" fill-rule="evenodd"/>
  </g>
</svg>
