<svg xmlns="http://www.w3.org/2000/svg" width="34" height="34" viewBox="0 0 34 34">
  <g id="music_on" data-name="music on" transform="translate(-1176 -166)">
    <path id="Path_19675" data-name="Path 19675" d="M12.745,2.941,6.219,4.628v5.388H4.406V3.093a.825.825,0,0,1,.624-.8L13.93.063a.506.506,0,0,1,.628.491v4.36l-1.813.46ZM4.406,13.348V10.016H6.219v4.058a3.015,3.015,0,0,1-3.263,3.27c-2.7,0-2.538-2.18-2.538-2.18a2.057,2.057,0,0,1,1.45-1.816A3.108,3.108,0,0,1,4.406,13.348Zm5.8-1.817a3.111,3.111,0,0,1,2.538,0V5.374l1.813-.46v7.343a3,3,0,0,1-3.263,3.27c-2.7,0-2.538-2.18-2.538-2.18A2.057,2.057,0,0,1,10.207,11.531Z" transform="translate(1184.584 174.602)" fill-rule="evenodd"/>
  </g>
</svg>
