<svg xmlns="http://www.w3.org/2000/svg" width="34" height="34" viewBox="0 0 34 34">
  <g id="refresh" transform="translate(-1217 -102)">
    <path id="Path_19606" data-name="Path 19606" d="M13.348,17.557A8.036,8.036,0,1,1,3.219,5.08,8.137,8.137,0,0,1,8.769,3.3V1.589c0-.018.006-.035.007-.053s-.006-.028-.007-.042A.818.818,0,0,1,9.52.581a.858.858,0,0,1,.559.169l4.23,3.6a.9.9,0,0,1,.073,1.267l-4.234,3.6s-.008,0-.012.007a.857.857,0,0,1-.5.2.812.812,0,0,1-.852-.814c0-.012,0-.024,0-.037s-.01-.024-.011-.036l0-2.256A5.188,5.188,0,0,0,5.089,7.387a5.065,5.065,0,1,0,8.249,4.059s-.11-1.141-.145-1.361a1.544,1.544,0,0,1,.483-1.606,1.448,1.448,0,0,1,2.087.257,1.767,1.767,0,0,1,.368.915A8.019,8.019,0,0,1,13.348,17.557Z" transform="translate(1225.752 108.421)" fill="#fff" fill-rule="evenodd"/>
  </g>
</svg>
