<svg xmlns="http://www.w3.org/2000/svg" width="34" height="34" viewBox="0 0 34 34">
  <g id="back" transform="translate(1218 -142) rotate(180)">
    <path id="Subtraction_1" data-name="Subtraction 1" d="M18.8,23.8H5a5.006,5.006,0,0,1-5-5V5A5.006,5.006,0,0,1,5,0H18.8a5.006,5.006,0,0,1,5,5V18.8A5.005,5.005,0,0,1,18.8,23.8ZM9.6,5.1a2.16,2.16,0,0,0-1.386.472,2.282,2.282,0,0,0,0,2.773L11.872,12,8.217,15.656A1.832,1.832,0,0,0,9.6,18.806a1.476,1.476,0,0,0,1.26-.5L15.9,13.261A1.778,1.778,0,0,0,16.536,12a2.571,2.571,0,0,0-.5-1.387L10.99,5.573A2.16,2.16,0,0,0,9.6,5.1Z" transform="translate(1189.1 -170.9)" fill="#fff"/>
  </g>
</svg>
