<svg xmlns="http://www.w3.org/2000/svg" width="38.597" height="46.494" viewBox="0 0 38.597 46.494"><defs><style>.a{fill:#fbd700;}.b{fill:#67e968;}.c{fill:#7dc5ee;}.d{fill:#f34969;}</style></defs><g transform="translate(1053 702.057)"><g transform="translate(-1052.995 -687.806)"><path class="a" d="M-1049.965-509.273a2.957,2.957,0,0,1-2.957-2.952l-.011-6.18a2.958,2.958,0,0,1,2.952-2.963,2.957,2.957,0,0,1,2.963,2.952l.011,6.18a2.957,2.957,0,0,1-2.953,2.963Z" transform="translate(1052.933 521.368)"/></g><g transform="translate(-1052.984 -673.592)"><path class="b" d="M-1049.84-335.2a2.957,2.957,0,0,1-2.957-2.957v-.016a2.957,2.957,0,0,1,2.957-2.957,2.957,2.957,0,0,1,2.958,2.957v.016A2.957,2.957,0,0,1-1049.84-335.2Z" transform="translate(1052.797 341.133)"/></g><path class="c" d="M-1016.966-622.293l-15.144-10.484a2.958,2.958,0,0,0-4.115.748,2.957,2.957,0,0,0,.748,4.115l15.234,10.546.207.131a1.964,1.964,0,0,1,1,1.73,1.963,1.963,0,0,1-1,1.732l-.173.109-22.633,15.28a1.967,1.967,0,0,1-1.894-.016,2.1,2.1,0,0,1-.362-.252,2.016,2.016,0,0,1-.283-.3,1.913,1.913,0,0,1-.245-.427,1.922,1.922,0,0,1-.114-.394,2.958,2.958,0,0,0-3.43-2.393,2.957,2.957,0,0,0-2.393,3.43,7.836,7.836,0,0,0,.468,1.608,7.812,7.812,0,0,0,1.006,1.756,7.936,7.936,0,0,0,1.115,1.19,8.015,8.015,0,0,0,1.387.967,7.9,7.9,0,0,0,3.813.988,7.9,7.9,0,0,0,3.931-1.056l.019-.011.013-.007c.055-.032.108-.066.16-.1l.014-.008,22.663-15.3a7.831,7.831,0,0,0,3.852-6.8A7.83,7.83,0,0,0-1016.966-622.293Z" transform="translate(-1.283 -63.332)"/><g transform="translate(-1053 -702.057)"><path class="d" d="M-1050.043-689.865a2.957,2.957,0,0,1-2.957-2.942c0-.026,0-1.353,0-1.379a7.838,7.838,0,0,1,3.978-6.812,7.837,7.837,0,0,1,7.885.008l.23.147.727.513a2.958,2.958,0,0,1,.71,4.122,2.957,2.957,0,0,1-4.122.71l-.593-.418a1.964,1.964,0,0,0-1.9.05,1.964,1.964,0,0,0-1.005,1.71c0,.121,0,1.259,0,1.326a2.957,2.957,0,0,1-2.942,2.964Z" transform="translate(1053 702.057)"/></g></g></svg>